<svg width="41" height="27" viewBox="0 0 41 27" fill="none" xmlns="http://www.w3.org/2000/svg">
<path d="M6.46394 27H0.379937L9.88394 0.36H15.5719L25.0399 27H18.8479L16.9759 21.384H8.37194L6.46394 27ZM11.9719 10.8L10.0639 16.488H15.3199L13.4119 10.8C13.1239 9.9 12.7999 8.856 12.6919 8.208C12.5839 8.82 12.2959 9.828 11.9719 10.8ZM22.0396 27H15.9556L25.4596 0.36H31.1476L40.6156 27H34.4236L32.5516 21.384H23.9476L22.0396 27ZM27.5476 10.8L25.6396 16.488H30.8956L28.9876 10.8C28.6996 9.9 28.3756 8.856 28.2676 8.208C28.1596 8.82 27.8716 9.828 27.5476 10.8Z" fill="#F65009"/>
</svg>
