<svg width="153" height="29" viewBox="0 0 153 29" fill="none" xmlns="http://www.w3.org/2000/svg">
<path d="M13.4436 28H3.00364V1.36H13.0836C20.8956 1.36 26.3316 6.832 26.3316 14.752C26.3316 22.528 21.0396 28 13.4436 28ZM12.5076 6.76H8.83564V22.6H12.8676C17.4756 22.6 20.1756 19.684 20.1756 14.752C20.1756 9.712 17.3316 6.76 12.5076 6.76ZM28.0144 18.964C28.0144 13.276 32.1904 9.46 37.9504 9.46C43.6744 9.46 47.8504 13.276 47.8504 18.964C47.8504 24.652 43.6744 28.432 37.9504 28.432C32.1904 28.432 28.0144 24.652 28.0144 18.964ZM33.5944 18.928C33.5944 21.664 35.3584 23.464 37.9504 23.464C40.5064 23.464 42.2704 21.664 42.2704 18.928C42.2704 16.228 40.5064 14.428 37.9504 14.428C35.3584 14.428 33.5944 16.228 33.5944 18.928ZM61.8746 10H67.4186V28H62.1986L61.8386 25.984C60.7226 27.46 58.4906 28.468 56.3306 28.468C52.2266 28.468 49.7066 25.732 49.7066 21.304V10H55.2506V19.288C55.2506 22.24 56.2586 23.536 58.5266 23.536C60.9026 23.536 61.8746 22.312 61.8746 19.36V10ZM76.0789 28H70.8589V0.856H76.4029V12.088C77.4829 10.468 79.8589 9.388 82.4509 9.388C87.4909 9.388 90.6949 13.312 90.6949 19.18C90.6949 24.76 87.1309 28.468 82.0189 28.468C79.4989 28.468 77.3389 27.352 76.3669 25.696L76.0789 28ZM76.4389 18.892C76.4389 21.592 78.2389 23.392 80.8309 23.392C83.4589 23.392 85.1149 21.556 85.1149 18.892C85.1149 16.228 83.4589 14.392 80.8309 14.392C78.2389 14.392 76.4389 16.192 76.4389 18.892ZM98.7102 28H93.1662V0.856H98.7102V28ZM110.501 28.468C105.065 28.468 101.177 24.508 101.177 18.964C101.177 13.348 104.957 9.424 110.393 9.424C116.045 9.424 119.573 13.132 119.573 19V20.404L106.505 20.476C106.829 22.852 108.161 23.968 110.609 23.968C112.697 23.968 114.173 23.212 114.569 21.916H119.645C118.997 25.912 115.433 28.468 110.501 28.468ZM110.429 13.924C108.233 13.924 107.009 14.896 106.577 17.056H114.065C114.065 15.148 112.661 13.924 110.429 13.924Z" fill="white"/>
<path d="M134.168 28H128L137.635 1H143.401L153 28H146.723L144.825 22.3081H136.102L134.168 28ZM139.752 11.5811L137.818 17.3459H143.146L141.212 11.5811C140.92 10.6689 140.591 9.61081 140.482 8.95405C140.372 9.57433 140.08 10.5959 139.752 11.5811Z" fill="#F65009"/>
<path d="M136 1L126.5 28H121L131 1H136Z" fill="#F65009"/>
</svg>
