<svg width="158" height="29" viewBox="0 0 158 29" fill="none" xmlns="http://www.w3.org/2000/svg">
<path d="M10.6232 28H0.183248V1.36H10.2632C18.0752 1.36 23.5112 6.832 23.5112 14.752C23.5112 22.528 18.2192 28 10.6232 28ZM9.68725 6.76H6.01525V22.6H10.0472C14.6552 22.6 17.3552 19.684 17.3552 14.752C17.3552 9.712 14.5112 6.76 9.68725 6.76ZM25.194 18.964C25.194 13.276 29.37 9.46 35.13 9.46C40.854 9.46 45.03 13.276 45.03 18.964C45.03 24.652 40.854 28.432 35.13 28.432C29.37 28.432 25.194 24.652 25.194 18.964ZM30.774 18.928C30.774 21.664 32.538 23.464 35.13 23.464C37.686 23.464 39.45 21.664 39.45 18.928C39.45 16.228 37.686 14.428 35.13 14.428C32.538 14.428 30.774 16.228 30.774 18.928ZM59.0542 10H64.5982V28H59.3782L59.0182 25.984C57.9022 27.46 55.6702 28.468 53.5102 28.468C49.4062 28.468 46.8862 25.732 46.8862 21.304V10H52.4302V19.288C52.4302 22.24 53.4382 23.536 55.7062 23.536C58.0822 23.536 59.0542 22.312 59.0542 19.36V10ZM73.2585 28H68.0385V0.856H73.5825V12.088C74.6625 10.468 77.0385 9.388 79.6305 9.388C84.6705 9.388 87.8745 13.312 87.8745 19.18C87.8745 24.76 84.3105 28.468 79.1985 28.468C76.6785 28.468 74.5185 27.352 73.5465 25.696L73.2585 28ZM73.6185 18.892C73.6185 21.592 75.4185 23.392 78.0105 23.392C80.6385 23.392 82.2945 21.556 82.2945 18.892C82.2945 16.228 80.6385 14.392 78.0105 14.392C75.4185 14.392 73.6185 16.192 73.6185 18.892ZM95.8898 28H90.3458V0.856H95.8898V28ZM107.681 28.468C102.245 28.468 98.3569 24.508 98.3569 18.964C98.3569 13.348 102.137 9.424 107.573 9.424C113.225 9.424 116.753 13.132 116.753 19V20.404L103.685 20.476C104.009 22.852 105.341 23.968 107.789 23.968C109.877 23.968 111.353 23.212 111.749 21.916H116.825C116.177 25.912 112.613 28.468 107.681 28.468ZM107.609 13.924C105.413 13.924 104.189 14.896 103.757 17.056H111.245C111.245 15.148 109.841 13.924 107.609 13.924Z" fill="black"/>
<path d="M123.109 28H117.025L126.529 1.36H132.217L141.685 28H135.493L133.621 22.384H125.017L123.109 28ZM128.617 11.8L126.709 17.488H131.965L130.057 11.8C129.769 10.9 129.445 9.856 129.337 9.208C129.229 9.82 128.941 10.828 128.617 11.8ZM138.684 28H132.6L142.104 1.36H147.792L157.26 28H151.068L149.196 22.384H140.592L138.684 28ZM144.192 11.8L142.284 17.488H147.54L145.632 11.8C145.344 10.9 145.02 9.856 144.912 9.208C144.804 9.82 144.516 10.828 144.192 11.8Z" fill="#F65009"/>
</svg>
